<svg width="1200" height="630" viewBox="0 0 1200 630" xmlns="http://www.w3.org/2000/svg">
  <!-- outer frame -->
  <rect width="1200" height="630" fill="#050505"/>
  <!-- inner panel -->
  <rect x="30" y="30" width="1140" height="570" fill="#0a0a0a" stroke="#1c1c1c" stroke-width="2"/>

  <!-- grid -->
  <g stroke="#131313" stroke-width="1">
    <line x1="125" y1="92" x2="125" y2="538"/>
    <line x1="220" y1="92" x2="220" y2="538"/>
    <line x1="315" y1="92" x2="315" y2="538"/>
    <line x1="410" y1="92" x2="410" y2="538"/>
    <line x1="505" y1="92" x2="505" y2="538"/>
    <line x1="600" y1="92" x2="600" y2="538"/>
    <line x1="695" y1="92" x2="695" y2="538"/>
    <line x1="790" y1="92" x2="790" y2="538"/>
    <line x1="885" y1="92" x2="885" y2="538"/>
    <line x1="980" y1="92" x2="980" y2="538"/>
    <line x1="1075" y1="92" x2="1075" y2="538"/>
    <line x1="30" y1="173" x2="1170" y2="173"/>
    <line x1="30" y1="254" x2="1170" y2="254"/>
    <line x1="30" y1="335" x2="1170" y2="335"/>
    <line x1="30" y1="416" x2="1170" y2="416"/>
    <line x1="30" y1="497" x2="1170" y2="497"/>
  </g>

  <!-- top bar -->
  <line x1="30" y1="92" x2="1170" y2="92" stroke="#1c1c1c" stroke-width="2"/>
  <rect x="62" y="55" width="9" height="9" fill="#c9a96e" transform="rotate(45 66.5 59.5)"/>
  <text x="88" y="68" font-family="JetBrains Mono" font-weight="700" font-size="19" letter-spacing="6" fill="#e8e8e8">GITLAWB DOCS</text>
  <text x="1138" y="68" text-anchor="end" font-family="JetBrains Mono" font-weight="700" font-size="19" letter-spacing="5" fill="#6b6b6b">AGENTS · HUMANS · OPERATORS</text>

  <!-- doc icon: page with folded corner, terminal prompt inside -->
  <g stroke="#f2f2f2" stroke-width="7" fill="none" stroke-linejoin="round" stroke-linecap="round">
    <path d="M104 212 a10 10 0 0 1 10 -10 h56 l44 44 v82 a10 10 0 0 1 -10 10 h-90 a10 10 0 0 1 -10 -10 z"/>
    <path d="M170 202 v34 a10 10 0 0 0 10 10 h34"/>
  </g>
  <text x="126" y="313" font-family="JetBrains Mono" font-weight="800" font-size="42" fill="#f2f2f2">&gt;</text>
  <rect x="156" y="303" width="22" height="8" fill="#c9a96e"/>

  <!-- wordmark -->
  <text x="268" y="316" font-family="JetBrains Mono" font-weight="800" font-size="150" fill="#f2f2f2">docs</text>
  <circle cx="668" cy="296" r="19" fill="#c9a96e"/>

  <!-- subtitle -->
  <text x="90" y="398" font-family="JetBrains Mono" font-weight="500" font-size="27" fill="#9a9a9a">end-to-end guides for agents &amp; humans — <tspan fill="#c9a96e">skill.md · llms.txt</tspan></text>

  <!-- bottom bar -->
  <line x1="30" y1="538" x2="1170" y2="538" stroke="#1c1c1c" stroke-width="2"/>
  <text x="90" y="578" font-family="JetBrains Mono" font-weight="500" font-size="24" fill="#5f5f5f">$</text>
  <text x="118" y="578" font-family="JetBrains Mono" font-weight="700" font-size="24" fill="#e8e8e8">curl explorer.gitlawb.com/docs</text>
  <rect x="562" y="558" width="13" height="24" fill="#c9a96e"/>
  <text x="1138" y="578" text-anchor="end" font-family="JetBrains Mono" font-weight="500" font-size="22" fill="#6b6b6b">quickstart · agents · protocol · node</text>
</svg>
